<svg xmlns="http://www.w3.org/2000/svg" viewBox="0 0 100 100">
  <defs>
    <radialGradient id="glow" cx="50%" cy="50%" r="50%">
      <stop offset="0%" style="stop-color:#ffa500;stop-opacity:1" />
      <stop offset="70%" style="stop-color:#ff6b35;stop-opacity:1" />
      <stop offset="100%" style="stop-color:#ff4500;stop-opacity:0.8" />
    </radialGradient>
    <filter id="blur">
      <feGaussianBlur stdDeviation="2" />
    </filter>
  </defs>
  <!-- Glow background -->
  <circle cx="50" cy="50" r="45" fill="url(#glow)" filter="url(#blur)" opacity="0.6"/>
  <!-- Dark background circle -->
  <circle cx="50" cy="50" r="40" fill="#1a1a2e"/>
  <!-- Flame icon -->
  <path d="M50 15 C35 35, 25 55, 35 70 C40 78, 45 82, 50 85 C55 82, 60 78, 65 70 C75 55, 65 35, 50 15 Z" fill="#ff6b35"/>
  <path d="M50 30 C42 42, 38 55, 42 65 C45 72, 48 75, 50 78 C52 75, 55 72, 58 65 C62 55, 58 42, 50 30 Z" fill="#ffa500"/>
  <path d="M50 45 C47 52, 45 58, 47 63 C48 67, 49 69, 50 71 C51 69, 52 67, 53 63 C55 58, 53 52, 50 45 Z" fill="#ffcc00"/>
</svg>
